<?xml version="1.0" encoding="UTF-8"?>
<svg id="Layer_1" data-name="Layer 1" xmlns="http://www.w3.org/2000/svg" viewBox="0 0 707.18 608.95">
  <defs>
    <style>
      .cls-1 {
        fill: #fff;
      }
    </style>
  </defs>
  <path class="cls-1" d="M349.11,453.68v8.45H190.66v-8.45h26.41V211.79h-74.47v241.89h26.41v8.45H10.56v-8.45h26.41V211.79H5.28v-8.45H37.5c5.81-98.76,62.85-137.32,153.16-137.32,45.42,0,80.81,6.34,116.72,16.9l-43.31,101.93h-.53l-69.72-106.69c-2.64-1.06-6.87-2.11-11.62-2.11-27.46,0-39.61,20.6-39.61,83.45v43.84h35.91c64.96,0,103.52-5.81,143.66-15.84l.53,.53V453.68h26.41Z"/>
  <path class="cls-1" d="M334.31,591.53v-5.81h5.81c38.56,0,54.93-19.01,54.93-94.54v-230.8l-30.1-25.88,135.74-47.01V478.5c0,72.36-40.67,118.83-122.53,118.83-15.32,0-28.52-1.58-43.84-5.81Zm52.81-472.17c0-34.86,21.13-58.62,58.62-58.62s58.62,23.77,58.62,58.62-21.13,59.15-58.62,59.15-58.62-23.77-58.62-59.15Z"/>
  <path class="cls-1" d="M539.23,453.68h26.41v-192.78l-30.1-25.88,135.73-47.53V453.68h26.41v8.45h-158.45v-8.45Zm20.6-334.32c0-34.86,21.13-58.62,58.62-58.62s58.62,23.77,58.62,58.62-21.13,59.15-58.62,59.15-58.62-23.77-58.62-59.15Z"/>
</svg>